<svg width="280" height="132" viewBox="0 0 180 32" fill="none" xmlns="http://www.w3.org/2000/svg"><g clip-path="url(#clip0_830_550)"><path d="M48.9236 0.276978H53.8347L63.6938 25.4119H58.5654L56.4296 19.7634H46.2138L44.078 25.4119H39.0603L48.9236 0.276978ZM54.9046 15.757L51.3094 6.20642L47.7142 15.757H54.9046Z" fill="white"></path><path d="M63.3044 16.3511C63.3044 10.8432 66.6496 7.04146 72.0609 7.04146C74.3401 7.04146 76.3325 7.98086 77.4024 9.37791V0H81.8872V25.4159H77.4024V23.2882C76.5497 24.6491 74.5205 25.6929 72.1346 25.6929C66.6168 25.6929 63.3044 21.859 63.3044 16.3511ZM77.6894 16.3511C77.6894 13.0392 75.7299 10.8432 72.7783 10.8432C69.8267 10.8432 67.863 13.0392 67.863 16.3511C67.863 19.6631 69.8226 21.8952 72.7783 21.8952C75.734 21.8952 77.6894 19.6992 77.6894 16.3511Z" fill="white"></path><path d="M84.3099 20.466C84.3099 17.2946 86.6589 15.3395 90.7543 14.8176L94.4561 14.3279C95.4522 14.1873 95.9523 13.7016 95.9523 12.8987C95.9523 11.5739 94.6364 10.4579 92.4637 10.4579C90.4345 10.4579 88.9054 11.5016 88.7619 13.3523H84.4206C84.847 9.48233 87.8396 7.0415 92.4678 7.0415C97.3462 7.0415 100.441 9.75933 100.441 14.0509V20.4299C100.441 21.4416 100.835 21.8952 101.581 21.8952C101.831 21.8952 102.188 21.827 102.188 21.827V25.4159C102.188 25.4159 101.122 25.6247 100.052 25.6247C98.166 25.6247 96.7763 24.7536 96.5632 23.0434C95.7433 24.6452 93.5009 25.6929 90.7584 25.6929C87.0197 25.6929 84.314 23.497 84.314 20.462M96.0589 17.6077V17.0858L91.5004 17.8165C89.6843 18.0935 88.7947 18.9325 88.7947 20.2573C88.7947 21.4777 89.8606 22.3489 91.5004 22.3489C94.3823 22.3489 96.0589 20.3255 96.0589 17.6077Z" fill="white"></path><path d="M104.352 7.32253H108.837V9.45023C109.833 8.02106 111.899 7.04553 114.318 7.04553C119.586 7.04553 122.968 10.8794 122.968 16.3552C122.968 21.831 119.373 25.697 113.998 25.697C111.825 25.697 109.87 24.862 108.837 23.5693V31.9355H104.352V7.32253ZM118.38 16.3512C118.38 13.0392 116.388 10.8433 113.502 10.8433C110.616 10.8433 108.554 13.0392 108.554 16.3512C108.554 19.6632 110.546 21.8952 113.502 21.8952C116.458 21.8952 118.38 19.6993 118.38 16.3512Z" fill="white"></path><path d="M135.647 10.9837H131.339V19.2456C131.339 20.9558 132.405 21.8952 133.901 21.8952C134.577 21.8952 135.291 21.7547 135.647 21.6503V25.452C135.221 25.5564 134.364 25.6969 133.368 25.6969C129.56 25.6969 126.854 23.7459 126.854 19.6992V10.9837H123.722V7.32248H126.854V1.98718H131.339V7.32248H135.647V10.9837Z" fill="white"></path><path d="M143.051 4.84954H138.172V0.248901H143.051V4.84954ZM138.353 7.32248H142.838V25.4159H138.353V7.32248Z" fill="white"></path><path d="M144.596 7.32251H149.118L153.463 20.3617L157.768 7.32251H162.29L155.562 25.4159H151.36L144.596 7.32251Z" fill="white"></path><path d="M171.017 7.0415C177.068 7.0415 179.987 11.5056 179.987 15.8614C179.987 16.592 179.917 17.4632 179.917 17.4632H166.426C166.819 20.3577 168.668 21.9956 171.374 21.9956C173.44 21.9956 175.006 21.0883 175.432 19.4865H179.884C179.278 23.4247 175.826 25.6929 171.267 25.6929C165.18 25.6929 162.011 21.0923 162.011 16.3512C162.011 11.61 164.966 7.0415 171.017 7.0415ZM175.145 14.1552C174.969 11.9954 173.542 10.3896 171.017 10.3896C168.701 10.3896 167.135 11.7505 166.569 14.1552H175.149H175.145Z" fill="white"></path><path d="M5.33016 1.98718H0.0131836V23.6856H5.33016V1.98718Z" fill="white"></path><path d="M13.197 7.19397H7.88V28.8924H13.197V7.19397Z" fill="white"></path><path d="M21.1704 3.72144H15.8534V25.4199H21.1704V3.72144Z" fill="white"></path><path d="M29.1479 0.25293H23.8309V21.9514H29.1479V0.25293Z" fill="white"></path></g><defs><clipPath id="clip0_830_550"><rect width="180" height="31.9355" fill="white"></rect></clipPath></defs></svg>