
<svg version="1.0" xmlns="http://www.w3.org/2000/svg"
 width="200.000000pt" height="200.000000pt" viewBox="0 0 200.000000 200.000000"
 preserveAspectRatio="xMidYMid meet">

<g transform="translate(0.000000,200.000000) scale(0.100000,-0.100000)"
fill="#fff" stroke="none">
<path d="M1400 1180 l0 -500 120 0 120 0 0 500 0 500 -120 0 -120 0 0 -500z"/>
<path d="M322 1103 l3 -498 122 -3 122 -3 1 501 0 500 -125 0 -126 0 3 -497z"/>
<path d="M1040 1020 l0 -500 120 0 120 0 0 500 0 500 -120 0 -120 0 0 -500z"/>
<path d="M680 860 l0 -500 120 0 120 0 0 500 0 500 -120 0 -120 0 0 -500z"/>
</g>
</svg>
